<svg width="100%" height="100%" version="1.1" 
    xmlns="http://www.w3.org/2000/svg"> 
    <g transform="matrix(0.5,0,0,0.5,0,0)">
        <g transform="matrix(1,0,0,1,20.3135,149.868)">
            <g transform="matrix(304,0,0,304,78.1533,282.863)">
                <path d="M0.108,0l0,-0.735l0.02,0l0,0.717l0.308,0l0,0.018l-0.328,0Z" style="fill:#0e5244;fill-rule:nonzero;"/>
            </g>
            <g transform="matrix(219.211,0,0,219.211,214.953,282.863)">
                <path d="M0.25,0.008c-0.025,0 -0.05,-0.005 -0.074,-0.015c-0.024,-0.01 -0.044,-0.025 -0.06,-0.045c-0.016,-0.02 -0.027,-0.043 -0.034,-0.068c-0.007,-0.024 -0.01,-0.05 -0.01,-0.075l0,-0.54l0.02,0l0,0.54c0,0.023 0.003,0.045 0.009,0.068c0.005,0.023 0.015,0.043 0.029,0.062c0.014,0.018 0.032,0.032 0.053,0.041c0.022,0.009 0.044,0.014 0.067,0.014c0.023,0 0.045,-0.005 0.067,-0.014c0.021,-0.009 0.039,-0.023 0.053,-0.041c0.014,-0.019 0.024,-0.039 0.03,-0.062c0.005,-0.023 0.008,-0.045 0.008,-0.068l0,-0.54l0.02,0l0,0.54c0,0.025 -0.003,0.051 -0.01,0.076c-0.007,0.025 -0.018,0.047 -0.034,0.067c-0.016,0.02 -0.036,0.035 -0.06,0.045c-0.024,0.01 -0.049,0.015 -0.074,0.015Z" style="fill:#0e5244;fill-rule:nonzero;"/>
            </g>
            <g transform="matrix(219.211,0,0,219.211,313.598,282.863)">
                <path d="M0.249,0.008c-0.025,0 -0.05,-0.005 -0.075,-0.014c-0.025,-0.009 -0.046,-0.024 -0.063,-0.045c-0.017,-0.02 -0.029,-0.043 -0.036,-0.068c-0.007,-0.024 -0.011,-0.05 -0.011,-0.076l0,-0.345c0,-0.026 0.004,-0.052 0.011,-0.077c0.007,-0.025 0.019,-0.048 0.036,-0.068c0.017,-0.02 0.038,-0.035 0.063,-0.044c0.025,-0.009 0.05,-0.014 0.076,-0.014c0.023,0 0.045,0.004 0.067,0.011c0.021,0.007 0.04,0.018 0.057,0.033c0.018,0.015 0.031,0.033 0.041,0.054c0.009,0.021 0.015,0.042 0.018,0.065l-0.02,0.004c-0.002,-0.021 -0.007,-0.04 -0.016,-0.059c-0.009,-0.019 -0.02,-0.035 -0.035,-0.049c-0.015,-0.015 -0.033,-0.025 -0.052,-0.031c-0.02,-0.007 -0.04,-0.01 -0.06,-0.01c-0.023,0 -0.046,0.004 -0.069,0.013c-0.022,0.009 -0.041,0.022 -0.055,0.041c-0.016,0.018 -0.026,0.039 -0.033,0.062c-0.006,0.023 -0.009,0.046 -0.009,0.069l0,0.345c0,0.023 0.003,0.046 0.01,0.069c0.006,0.023 0.017,0.043 0.032,0.062c0.014,0.018 0.033,0.032 0.055,0.041c0.022,0.009 0.045,0.013 0.068,0.013c0.023,0 0.046,-0.004 0.067,-0.013c0.021,-0.009 0.039,-0.023 0.053,-0.042c0.015,-0.019 0.025,-0.039 0.031,-0.062c0.005,-0.023 0.008,-0.045 0.008,-0.068l0,-0.174l-0.158,0l0,-0.018l0.178,0l0,0.192c0,0.025 -0.003,0.051 -0.01,0.076c-0.007,0.025 -0.018,0.047 -0.034,0.068c-0.016,0.02 -0.036,0.035 -0.06,0.045c-0.024,0.009 -0.049,0.014 -0.075,0.014Z" style="fill:#0e5244;fill-rule:nonzero;"/>
            </g>
        </g>
    </g>
</svg>